<svg width="24" height="25" viewBox="0 0 24 25" fill="none" xmlns="http://www.w3.org/2000/svg">
<g clip-path="url(#clip0_733_563)">
<path d="M22.2225 0.5H1.7715C0.795 0.5 0 1.27477 0 2.2288V22.7674C0 23.7237 0.795 24.5 1.7715 24.5H22.224C23.2027 24.5 24 23.7237 24 22.7674V2.2288C24 1.27477 23.2027 0.5 22.2225 0.5Z" fill="white"/>
<path d="M5.23159 10.1522H8.13718V19.4994H5.23159V10.1522ZM6.68225 5.5C7.60923 5.5 8.36266 6.25476 8.36266 7.18336C8.36266 8.11195 7.60923 8.86855 6.68286 8.86855C6.23694 8.86758 5.80955 8.68974 5.49418 8.37393C5.17881 8.05812 5.00113 7.63005 5 7.18336C5 6.96214 5.04353 6.74309 5.12809 6.53874C5.21265 6.33439 5.33659 6.14873 5.49283 5.99239C5.64907 5.83606 5.83453 5.7121 6.03862 5.62761C6.24271 5.54312 6.46142 5.49976 6.68225 5.5ZM9.95142 10.1522H12.733V11.4297H12.7715C13.1589 10.6951 14.1048 9.92018 15.5212 9.92018C18.458 9.92018 19 11.8563 19 14.3728V19.5H16.1017V14.9531C16.1017 13.8696 16.0822 12.474 14.5949 12.474C13.0855 12.474 12.8533 13.6554 12.8533 14.8735V19.4976H9.9557V10.1503L9.95142 10.1522Z" fill="#181A20"/>
</g>
<defs>
<clipPath id="clip0_733_563">
<rect width="24" height="24" fill="white" transform="translate(0 0.5)"/>
</clipPath>
</defs>
</svg>
