<svg width="150" height="40" viewBox="0 0 150 40" fill="none" xmlns="http://www.w3.org/2000/svg">
<path d="M9.63188 39.9979C9.24431 39.9979 8.8661 39.9938 8.48156 39.9867C7.68497 39.9782 6.89024 39.9212 6.10389 39.8162C5.37065 39.7124 4.66035 39.5193 3.9964 39.2432C3.33854 38.9695 2.73851 38.6106 2.21932 38.1802C1.6926 37.7549 1.25409 37.2616 0.921157 36.7199C0.584553 36.1746 0.351604 35.5902 0.230423 34.9869C0.0995577 34.3387 0.0287543 33.6833 0.0186231 33.0262C0.0105582 32.8057 0 32.0714 0 32.0714V7.91524C0 7.91524 0.0112451 7.19223 0.0186867 6.97982C0.0283873 6.32383 0.0987789 5.66941 0.229252 5.0222C0.350657 4.41729 0.583787 3.83117 0.920572 3.28415C1.25228 2.7428 1.68836 2.24915 2.2119 1.82232C2.73485 1.39143 3.33679 1.03064 3.99577 0.753121C4.6582 0.477981 5.36716 0.286241 6.09891 0.184325C6.88785 0.0782559 7.68534 0.0209098 8.48469 0.012768L9.63251 0H140.361L141.523 0.0132804C142.315 0.0210177 143.105 0.0778522 143.887 0.1833C144.626 0.286495 145.342 0.479573 146.012 0.756185C147.332 1.31547 148.407 2.20032 149.084 3.2867C149.416 3.82995 149.645 4.41128 149.765 5.01097C149.897 5.66349 149.971 6.32306 149.986 6.98442C149.99 7.28056 149.99 7.59866 149.99 7.91524C150 8.30737 150 8.68061 150 9.05692V30.942C150 31.3219 150 31.6926 149.99 32.0663C149.99 32.4064 149.99 32.7179 149.985 33.0385C149.97 33.688 149.897 34.3358 149.768 34.9767C149.649 35.5843 149.417 36.1733 149.081 36.723C148.745 37.2588 148.309 37.7478 147.789 38.172C147.269 38.6047 146.668 38.9657 146.009 39.2412C145.34 39.5194 144.625 39.7132 143.887 39.8162C143.101 39.9217 142.306 39.9788 141.509 39.9867C141.136 39.9938 140.746 39.9979 140.368 39.9979L138.989 40L9.63188 39.9979Z" fill="#333333"/>
<path d="M47.258 7.7H49.715C50.567 7.7 51.278 8.006 51.848 8.618C52.418 9.224 52.703 9.968 52.703 10.85C52.703 11.726 52.418 12.473 51.848 13.091C51.278 13.697 50.567 14 49.715 14H47.258V7.7ZM48.095 13.208H49.715C50.357 13.208 50.882 12.983 51.29 12.533C51.698 12.077 51.902 11.516 51.902 10.85C51.902 10.184 51.698 9.623 51.29 9.167C50.882 8.717 50.357 8.492 49.715 8.492H48.095V13.208ZM57.835 13.433C57.379 13.889 56.818 14.117 56.152 14.117C55.486 14.117 54.925 13.889 54.469 13.433C54.013 12.977 53.785 12.416 53.785 11.75C53.785 11.084 54.013 10.523 54.469 10.067C54.925 9.611 55.486 9.383 56.152 9.383C56.818 9.383 57.379 9.611 57.835 10.067C58.297 10.529 58.528 11.09 58.528 11.75C58.528 12.41 58.297 12.971 57.835 13.433ZM56.152 13.352C56.602 13.352 56.98 13.199 57.286 12.893C57.592 12.587 57.745 12.206 57.745 11.75C57.745 11.294 57.592 10.913 57.286 10.607C56.98 10.301 56.602 10.148 56.152 10.148C55.708 10.148 55.333 10.301 55.027 10.607C54.721 10.913 54.568 11.294 54.568 11.75C54.568 12.206 54.721 12.587 55.027 12.893C55.333 13.199 55.708 13.352 56.152 13.352ZM63.9863 12.929L64.9763 9.5H65.7953L64.4003 14H63.5993L62.5463 10.67L61.4933 14H60.6923L59.2973 9.5H60.1163L61.1063 12.92L62.1683 9.5H62.9243L63.9863 12.929ZM69.242 9.383C69.77 9.383 70.193 9.551 70.511 9.887C70.829 10.217 70.988 10.667 70.988 11.237V14H70.205V11.282C70.205 10.922 70.106 10.64 69.908 10.436C69.71 10.232 69.437 10.13 69.089 10.13C68.687 10.13 68.369 10.256 68.135 10.508C67.901 10.754 67.784 11.123 67.784 11.615V14H67.001V9.5H67.784V10.148C68.096 9.638 68.582 9.383 69.242 9.383ZM73.2641 14H72.4811V7.43H73.2641V14ZM78.6566 13.433C78.2006 13.889 77.6396 14.117 76.9736 14.117C76.3076 14.117 75.7466 13.889 75.2906 13.433C74.8346 12.977 74.6066 12.416 74.6066 11.75C74.6066 11.084 74.8346 10.523 75.2906 10.067C75.7466 9.611 76.3076 9.383 76.9736 9.383C77.6396 9.383 78.2006 9.611 78.6566 10.067C79.1186 10.529 79.3496 11.09 79.3496 11.75C79.3496 12.41 79.1186 12.971 78.6566 13.433ZM76.9736 13.352C77.4236 13.352 77.8016 13.199 78.1076 12.893C78.4136 12.587 78.5666 12.206 78.5666 11.75C78.5666 11.294 78.4136 10.913 78.1076 10.607C77.8016 10.301 77.4236 10.148 76.9736 10.148C76.5296 10.148 76.1546 10.301 75.8486 10.607C75.5426 10.913 75.3896 11.294 75.3896 11.75C75.3896 12.206 75.5426 12.587 75.8486 12.893C76.1546 13.199 76.5296 13.352 76.9736 13.352ZM84.3987 10.274V9.5H85.1817V14H84.3987V13.226C84.0147 13.82 83.4477 14.117 82.6977 14.117C82.0617 14.117 81.5247 13.889 81.0867 13.433C80.6427 12.971 80.4207 12.41 80.4207 11.75C80.4207 11.096 80.6427 10.538 81.0867 10.076C81.5307 9.614 82.0677 9.383 82.6977 9.383C83.4477 9.383 84.0147 9.68 84.3987 10.274ZM82.7967 13.361C83.2527 13.361 83.6337 13.208 83.9397 12.902C84.2457 12.584 84.3987 12.2 84.3987 11.75C84.3987 11.294 84.2457 10.913 83.9397 10.607C83.6337 10.295 83.2527 10.139 82.7967 10.139C82.3467 10.139 81.9687 10.295 81.6627 10.607C81.3567 10.913 81.2037 11.294 81.2037 11.75C81.2037 12.2 81.3567 12.584 81.6627 12.902C81.9687 13.208 82.3467 13.361 82.7967 13.361ZM90.494 10.274V9.5H91.277V14H90.494V13.226C90.11 13.82 89.543 14.117 88.793 14.117C88.157 14.117 87.62 13.889 87.182 13.433C86.738 12.971 86.516 12.41 86.516 11.75C86.516 11.096 86.738 10.538 87.182 10.076C87.626 9.614 88.163 9.383 88.793 9.383C89.543 9.383 90.11 9.68 90.494 10.274ZM88.892 13.361C89.348 13.361 89.729 13.208 90.035 12.902C90.341 12.584 90.494 12.2 90.494 11.75C90.494 11.294 90.341 10.913 90.035 10.607C89.729 10.295 89.348 10.139 88.892 10.139C88.442 10.139 88.064 10.295 87.758 10.607C87.452 10.913 87.299 11.294 87.299 11.75C87.299 12.2 87.452 12.584 87.758 12.902C88.064 13.208 88.442 13.361 88.892 13.361ZM96.5893 10.274V7.7H97.3723V14H96.5893V13.226C96.2053 13.82 95.6383 14.117 94.8883 14.117C94.2523 14.117 93.7153 13.889 93.2773 13.433C92.8333 12.971 92.6113 12.41 92.6113 11.75C92.6113 11.096 92.8333 10.538 93.2773 10.076C93.7213 9.614 94.2583 9.383 94.8883 9.383C95.6383 9.383 96.2053 9.68 96.5893 10.274ZM94.9873 13.361C95.4433 13.361 95.8243 13.208 96.1303 12.902C96.4363 12.584 96.5893 12.2 96.5893 11.75C96.5893 11.294 96.4363 10.913 96.1303 10.607C95.8243 10.295 95.4433 10.139 94.9873 10.139C94.5373 10.139 94.1593 10.295 93.8533 10.607C93.5473 10.913 93.3943 11.294 93.3943 11.75C93.3943 12.2 93.5473 12.584 93.8533 12.902C94.1593 13.208 94.5373 13.361 94.9873 13.361ZM105.407 13.433C104.951 13.889 104.39 14.117 103.724 14.117C103.058 14.117 102.497 13.889 102.041 13.433C101.585 12.977 101.357 12.416 101.357 11.75C101.357 11.084 101.585 10.523 102.041 10.067C102.497 9.611 103.058 9.383 103.724 9.383C104.39 9.383 104.951 9.611 105.407 10.067C105.869 10.529 106.1 11.09 106.1 11.75C106.1 12.41 105.869 12.971 105.407 13.433ZM103.724 13.352C104.174 13.352 104.552 13.199 104.858 12.893C105.164 12.587 105.317 12.206 105.317 11.75C105.317 11.294 105.164 10.913 104.858 10.607C104.552 10.301 104.174 10.148 103.724 10.148C103.28 10.148 102.905 10.301 102.599 10.607C102.293 10.913 102.14 11.294 102.14 11.75C102.14 12.206 102.293 12.587 102.599 12.893C102.905 13.199 103.28 13.352 103.724 13.352ZM109.664 9.383C110.192 9.383 110.615 9.551 110.933 9.887C111.251 10.217 111.41 10.667 111.41 11.237V14H110.627V11.282C110.627 10.922 110.528 10.64 110.33 10.436C110.132 10.232 109.859 10.13 109.511 10.13C109.109 10.13 108.791 10.256 108.557 10.508C108.323 10.754 108.206 11.123 108.206 11.615V14H107.423V9.5H108.206V10.148C108.518 9.638 109.004 9.383 109.664 9.383ZM118.001 9.5V10.256H116.804V12.695C116.804 12.917 116.846 13.076 116.93 13.172C117.02 13.262 117.155 13.31 117.335 13.316C117.515 13.316 117.737 13.31 118.001 13.298V14C117.311 14.09 116.807 14.033 116.489 13.829C116.177 13.625 116.021 13.247 116.021 12.695V10.256H115.13V9.5H116.021V8.474L116.804 8.24V9.5H118.001ZM121.569 9.383C122.097 9.383 122.52 9.551 122.838 9.887C123.156 10.217 123.315 10.667 123.315 11.237V14H122.532V11.282C122.532 10.922 122.433 10.64 122.235 10.436C122.037 10.232 121.764 10.13 121.416 10.13C121.014 10.13 120.696 10.256 120.462 10.508C120.228 10.754 120.111 11.123 120.111 11.615V14H119.328V7.7H120.111V10.148C120.423 9.638 120.909 9.383 121.569 9.383ZM129.128 12.11H125.357C125.435 12.506 125.618 12.818 125.906 13.046C126.194 13.268 126.554 13.379 126.986 13.379C127.58 13.379 128.012 13.16 128.282 12.722L128.948 13.1C128.504 13.778 127.844 14.117 126.968 14.117C126.26 14.117 125.678 13.895 125.222 13.451C124.778 12.995 124.556 12.428 124.556 11.75C124.556 11.066 124.775 10.502 125.213 10.058C125.651 9.608 126.218 9.383 126.914 9.383C127.574 9.383 128.111 9.617 128.525 10.085C128.945 10.541 129.155 11.099 129.155 11.759C129.155 11.873 129.146 11.99 129.128 12.11ZM126.914 10.121C126.5 10.121 126.152 10.238 125.87 10.472C125.594 10.706 125.423 11.024 125.357 11.426H128.363C128.297 11.012 128.132 10.691 127.868 10.463C127.604 10.235 127.286 10.121 126.914 10.121Z" fill="white"/>
<path fill-rule="evenodd" clip-rule="evenodd" d="M88.8762 29.4571C87.1614 29.4571 85.9066 28.609 85.7621 27.3172L83.7666 27.3171C83.8926 29.6732 85.843 31.1637 88.7318 31.1637C91.8192 31.1637 93.7604 29.6374 93.7604 27.2004C93.7604 25.295 92.65 24.2215 89.9774 23.5894L88.5423 23.237C86.8633 22.8222 86.177 22.2803 86.177 21.3594C86.177 20.2039 87.2515 19.41 88.8219 19.41C90.3923 19.41 91.4669 20.1947 91.5847 21.4946H93.5525C93.489 19.2471 91.6021 17.7034 88.8496 17.7034C86.0684 17.7034 84.1098 19.2471 84.1098 21.4946C84.1098 23.3098 85.2202 24.4284 87.6122 25.0062L89.3003 25.4129C90.9885 25.8277 91.7015 26.4331 91.7015 27.4442C91.7015 28.6089 90.5193 29.4571 88.8762 29.4571ZM54.9139 27.4259H49.9487L48.7564 30.9467H46.6533L51.3562 17.9207H53.5412L58.2442 30.9467H56.1053L54.9139 27.4259ZM50.463 25.8011H54.3987L52.4585 20.0871H52.4042L50.463 25.8011ZM64.4376 31.0459C66.8213 31.0459 68.4009 29.1498 68.4009 26.1985C68.4009 23.2555 66.8121 21.3501 64.4018 21.3501C63.1615 21.3101 61.9996 21.9552 61.3778 23.0291H61.3419V21.4495H59.455V34.0883H61.4044V29.3843H61.4495C62.0449 30.465 63.2055 31.1103 64.4376 31.0459ZM66.3975 26.1986C66.3975 24.2758 65.4039 23.0117 63.8878 23.0117C62.3983 23.0117 61.3965 24.3024 61.3965 26.1986C61.3965 28.1121 62.3983 29.3936 63.8878 29.3936C65.4039 29.3936 66.3975 28.1387 66.3975 26.1986ZM74.8908 31.0459C77.2745 31.0459 78.8541 29.1498 78.8541 26.1985C78.8541 23.2555 77.2653 21.3501 74.8549 21.3501C73.6146 21.3101 72.4528 21.9552 71.831 23.0291H71.7951V21.4495H69.9082V34.0883H71.8576V29.3843H71.9027C72.4981 30.465 73.6587 31.1104 74.8908 31.0459ZM76.8497 26.1986C76.8497 24.2758 75.856 23.0117 74.3399 23.0117C72.8505 23.0117 71.8486 24.3024 71.8486 26.1986C71.8486 28.1121 72.8505 29.3936 74.3399 29.3936C75.856 29.3936 76.8497 28.1387 76.8497 26.1986ZM97.9674 19.2021V21.4496H99.7734V22.9934H97.9674V28.229C97.9674 29.0423 98.329 29.4214 99.1229 29.4214C99.3373 29.4176 99.5514 29.4026 99.7642 29.3763V30.9108C99.4072 30.9775 99.0444 31.0077 98.6814 31.0009C96.7586 31.0009 96.0088 30.2787 96.0088 28.4369V22.9934H94.6279V21.4496H96.0088V19.2021H97.9674ZM105.324 21.3328C102.579 21.3328 100.819 23.2105 100.819 26.1986C100.819 29.1949 102.562 31.0644 105.324 31.0644C108.086 31.0644 109.829 29.1949 109.829 26.1986C109.829 23.2104 108.077 21.3328 105.324 21.3328ZM107.843 26.1985C107.843 24.1488 106.903 22.939 105.324 22.939C103.744 22.939 102.806 24.158 102.806 26.1985C102.806 28.2565 103.744 29.4571 105.324 29.4571C106.903 29.4571 107.843 28.2565 107.843 26.1985H107.843ZM113.296 21.4497H111.437L111.437 30.9467H113.386V25.3136C113.321 24.7437 113.508 24.1739 113.899 23.7539C114.29 23.3338 114.844 23.1054 115.417 23.1286C115.714 23.12 116.01 23.1598 116.293 23.2464V21.423C116.074 21.3739 115.85 21.3495 115.625 21.3503C114.554 21.3094 113.6 22.0255 113.341 23.0661H113.296V21.4497ZM125.281 28.1572C125.019 29.8812 123.34 31.0644 121.191 31.0644C118.429 31.0644 116.714 29.2133 116.714 26.2436C116.714 23.2647 118.438 21.3328 121.109 21.3328C123.737 21.3328 125.389 23.1377 125.389 26.0173V26.6851H118.682V26.8029C118.619 27.51 118.863 28.2098 119.352 28.7245C119.841 29.2392 120.527 29.5191 121.237 29.493C122.183 29.5816 123.074 29.0384 123.43 28.1572L125.281 28.1572ZM123.439 25.3228H118.691C118.69 24.6816 118.944 24.0663 119.398 23.6137C119.853 23.161 120.469 22.9086 121.11 22.9124C121.746 22.8987 122.359 23.1511 122.801 23.6086C123.244 24.0662 123.475 24.6874 123.439 25.3228Z" fill="white"/>
<path fill-rule="evenodd" clip-rule="evenodd" d="M34.8256 8.10425C34.9272 9.43038 34.5078 10.7439 33.6565 11.7658C32.8306 12.793 31.5792 13.3847 30.2613 13.3711C30.1774 12.0831 30.609 10.8147 31.461 9.84512C32.3237 8.86242 33.5251 8.24084 34.8256 8.10425ZM38.9938 15.8962C37.4777 16.8282 36.5448 18.472 36.5219 20.2515C36.524 22.2649 37.7297 24.0818 39.584 24.8661C39.2274 26.0246 38.6899 27.1194 37.9913 28.11C37.0531 29.5134 36.0694 30.8845 34.5082 30.9099C33.7657 30.927 33.2644 30.7135 32.7421 30.491C32.1974 30.2589 31.6297 30.0171 30.7413 30.0171C29.7992 30.0171 29.2061 30.2667 28.6341 30.5074C28.1397 30.7155 27.6612 30.9169 26.9867 30.9449C25.4998 30.9999 24.3635 29.447 23.3912 28.0568C21.4479 25.2176 19.9347 20.0556 21.9634 16.5432C22.916 14.8314 24.6972 13.7451 26.6553 13.6818C27.4986 13.6645 28.3078 13.9895 29.0172 14.2744C29.5598 14.4924 30.044 14.6869 30.4405 14.6869C30.789 14.6869 31.2597 14.5 31.8083 14.2823C32.6724 13.9394 33.7298 13.5197 34.8072 13.6328C36.4815 13.6852 38.033 14.524 38.9938 15.8962Z" fill="white"/>
</svg>
