<svg width="20" height="26" viewBox="0 0 20 26" fill="none" xmlns="http://www.w3.org/2000/svg">
<path d="M0.590936 15.3895H1.1296V17.5804C1.1296 18.0113 1.36432 18.4081 1.74223 18.6157L7.71502 21.8944V23.0989C7.71502 23.5958 8.11942 24 8.6164 24H9.56087C10.0581 24 10.4624 23.5957 10.4624 23.0989L10.4626 15.8248C11.3954 16.0709 12.6916 16.3256 14.064 16.3255C16.2123 16.3253 18.5466 15.7012 19.9618 13.4441C20.0337 13.3296 20.0012 13.1784 19.8886 13.1035L18.2394 12.0059C18.2077 11.7063 18.1048 10.8904 17.8636 9.93726C17.8631 9.93586 17.8636 9.93447 17.8631 9.93307C17.8629 9.93237 17.8624 9.93203 17.8622 9.9315C17.8448 9.86264 17.8286 9.79501 17.8096 9.72493C17.8082 9.71935 17.8064 9.71377 17.8045 9.7082C16.4896 5.92051 13.4436 4 8.75091 4C3.92546 4 0 7.77881 0 12.4233V14.7984C0 15.1244 0.265242 15.3894 0.591162 15.3894L0.590936 15.3895ZM1.9829 18.1776C1.76492 18.0579 1.62959 17.829 1.62959 17.5804V15.3895H3.37714V16.6978C3.37714 16.8529 3.46155 16.9957 3.59792 17.0707L7.7152 19.3285V21.324L1.9829 18.1776ZM7.71506 15.3895V18.7585L3.87697 16.6537V15.3895H7.71506ZM9.96257 23.0992C9.96257 23.3206 9.78242 23.5005 9.56095 23.5005H8.61649C8.39502 23.5005 8.21505 23.3206 8.21505 23.0992V15.3895H9.08264C9.19634 15.4331 9.51023 15.5485 9.9626 15.6836L9.96257 23.0992ZM7.96515 8.50138H10.2127C10.3949 8.50138 10.5431 8.64956 10.5431 8.83172V10.0396C10.5431 10.2218 10.3949 10.3699 10.2127 10.3699H7.96515C7.78292 10.3699 7.63452 10.2218 7.63452 10.0396V8.83172C7.63452 8.64956 7.78292 8.50138 7.96515 8.50138ZM8.21505 12.9221V10.8698H9.9626V12.3327L8.21505 12.9221ZM8.21505 13.4497L17.4472 10.3367C17.6139 11.0582 17.6978 11.6753 17.7327 11.9748L9.08846 14.8896H8.21516L8.21505 13.4497ZM9.90121 15.1431L17.9655 12.4238L19.4045 13.3817C16.9457 16.9595 11.7554 15.7284 9.90094 15.1431H9.90121ZM17.324 9.85036L10.4624 12.1642V10.8271C10.7977 10.7202 11.0427 10.4098 11.0427 10.0397V8.8318C11.0427 8.46171 10.7975 8.15106 10.4624 8.04436V4.60043C13.944 5.01985 16.2499 6.77911 17.324 9.85031V9.85036ZM9.96237 4.55273V8.00134H8.21482V4.51801C8.39218 4.50703 8.5704 4.49953 8.75054 4.49953C9.16994 4.49936 9.57085 4.5208 9.96237 4.5527V4.55273ZM0.499404 12.4231C0.499404 8.39098 3.65249 5.05522 7.7146 4.56389V8.04387C7.37926 8.15073 7.13406 8.4612 7.13406 8.83131V10.0392C7.13406 10.4093 7.37925 10.7199 7.7146 10.8266V14.889L0.590476 14.8892C0.540253 14.8892 0.499444 14.8484 0.499444 14.7982L0.499404 12.4231Z" fill="#D96A2C"/>
</svg>
