<svg width="20" height="21" viewBox="0 0 20 21" fill="none" xmlns="http://www.w3.org/2000/svg">
<path d="M0.590908 11.9394C0.237517 11.9393 -0.05 11.652 -0.05 11.2984V8.92328C-0.05 4.24941 3.89966 0.45 8.75091 0.45C11.1038 0.45 13.0485 0.931468 14.5711 1.89142C16.0942 2.85177 17.191 4.28857 17.8517 6.1918L17.8518 6.19193C17.8539 6.19821 17.8561 6.20507 17.8579 6.21231M0.590908 11.9394L17.8096 6.22493M0.590908 11.9394L0.590936 11.9395H1.0796V14.0804C1.0796 14.5296 1.32426 14.9431 1.71816 15.1595L1.71817 15.1595L7.66502 18.424V19.5989C7.66502 20.1234 8.09182 20.55 8.6164 20.55H9.56087C10.0856 20.55 10.5124 20.1234 10.5124 19.5989L10.5126 12.3896C11.4428 12.6311 12.7164 12.8756 14.0641 12.8755C16.221 12.8753 18.5761 12.2484 20.0042 9.97066C20.0904 9.83319 20.0515 9.65181 19.9163 9.56185L18.2866 8.47729C18.2521 8.15924 18.1483 7.35959 17.913 6.4287M0.590908 11.9394L17.8777 6.42759M17.8579 6.21231C17.858 6.21247 17.858 6.21263 17.8581 6.21279L17.8096 6.22493M17.8579 6.21231C17.8579 6.21215 17.8579 6.212 17.8578 6.21184L17.8096 6.22493M17.8579 6.21231C17.8714 6.26199 17.8836 6.31075 17.8956 6.35899C17.9002 6.37749 17.9048 6.39591 17.9094 6.41428M17.8096 6.22493C17.8229 6.27427 17.8349 6.32241 17.847 6.37061C17.852 6.39086 17.8571 6.41113 17.8622 6.4315M17.9094 6.41428C17.9069 6.4079 17.9038 6.40378 17.9031 6.40282L17.9043 6.40456C17.9055 6.40644 17.9078 6.41026 17.9096 6.4156L17.9089 6.41583L17.8622 6.4315M17.9094 6.41428C17.9096 6.4147 17.9097 6.41511 17.9098 6.41552L17.9099 6.41547C17.91 6.41581 17.9102 6.41615 17.9103 6.41649C17.912 6.42127 17.9127 6.42552 17.913 6.4287M17.9094 6.41428L17.913 6.4287M17.8622 6.4315L17.8777 6.42759M17.8622 6.4315L17.8777 6.42759M17.8777 6.42759L17.8631 6.43307L17.8976 6.42449L17.911 6.42116M17.911 6.42116C17.9114 6.4225 17.9118 6.42379 17.9121 6.425C17.9127 6.4276 17.913 6.42984 17.9132 6.43153C17.9133 6.43285 17.9133 6.43406 17.9134 6.43474L17.9133 6.43347L17.9131 6.42944C17.9131 6.4292 17.9131 6.42896 17.913 6.4287M17.911 6.42116L17.911 6.42115L17.9104 6.41966C17.9106 6.42016 17.9108 6.42066 17.911 6.42116ZM7.6652 15.8581V17.7395L2.00698 14.6338C1.80499 14.5229 1.67959 14.3108 1.67959 14.0804V11.9395H3.32714V13.1978C3.32714 13.3712 3.4215 13.5307 3.57383 13.6145L3.57387 13.6145L7.6652 15.8581ZM19.3344 9.89509C18.1164 11.6335 16.2379 12.2082 14.4243 12.2736C12.6889 12.3363 11.0197 11.932 10.0635 11.6411L17.9582 8.97902L19.3344 9.89509ZM8.75054 1.04953H8.75056C9.15188 1.04936 9.53641 1.06907 9.91237 1.09884V4.45134H8.26482V1.06509C8.42599 1.05571 8.58757 1.04953 8.75054 1.04953ZM7.66506 11.9395V15.174L3.92697 13.1241V11.9395H7.66506ZM9.91257 19.5992C9.91257 19.7929 9.75485 19.9505 9.56095 19.9505H8.61649C8.42261 19.9505 8.26505 19.793 8.26505 19.5992V11.9395H9.07341C9.19149 11.9845 9.48884 12.0932 9.9126 12.2208L9.91257 19.5992ZM7.96515 5.05138H10.2127C10.3673 5.05138 10.4931 5.17719 10.4931 5.33172V6.53959C10.4931 6.69412 10.3673 6.81993 10.2127 6.81993H7.96515C7.81048 6.81993 7.68452 6.69409 7.68452 6.53959V5.33172C7.68452 5.17722 7.81048 5.05138 7.96515 5.05138ZM8.26505 9.35243V7.41977H9.9126V8.79677L8.26505 9.35243ZM8.26505 9.98563L17.4108 6.90169C17.5619 7.56699 17.6419 8.13731 17.6783 8.44035L9.08026 11.3396H8.26515L8.26505 9.98563ZM10.5124 1.15695C12.2212 1.37067 13.6404 1.91039 14.7656 2.77067C15.891 3.63111 16.725 4.81431 17.26 6.31917L10.5124 8.59453V7.36285C10.8495 7.23984 11.0927 6.91968 11.0927 6.53967V5.3318C11.0927 4.95182 10.8493 4.63149 10.5124 4.50861V1.15695ZM0.549404 8.92309C0.549404 4.93672 3.65273 1.63276 7.6646 1.12049V4.50813C7.32753 4.63113 7.08406 4.95128 7.08406 5.33131V6.53917C7.08406 6.91916 7.3275 7.23949 7.6646 7.36237V11.339L0.590475 11.3392C0.567849 11.3392 0.549444 11.3208 0.549444 11.2982L0.549404 8.92309Z" fill="#D96A2C" stroke="#D96A2C" stroke-width="0.1"/>
</svg>
