<svg width="20" height="21" viewBox="0 0 20 21" fill="none" xmlns="http://www.w3.org/2000/svg">
<path d="M10.0031 0.500002C8.08751 0.498762 6.21203 1.04809 4.59969 2.08264C2.9873 3.117 1.70596 4.59317 0.908198 6.33538C0.110474 8.07734 -0.170191 10.0122 0.0997636 11.9091C0.369706 13.8061 1.17875 15.5856 2.43085 17.0361C3.6828 18.4863 5.32505 19.5461 7.16189 20.0896C8.99881 20.6329 10.9532 20.6369 12.7923 20.101C12.8008 20.0992 12.8099 20.0987 12.8183 20.0967H12.8181C15.1258 19.4192 17.112 17.9322 18.4124 15.9082C19.7128 13.8843 20.2405 11.4595 19.8983 9.07816C19.5563 6.69691 18.3674 4.51868 16.5501 2.9433C14.7326 1.36764 12.4081 0.500228 10.003 0.500069L10.0031 0.500002ZM9.23203 17.926C10.4194 17.7302 11.4447 17.3934 12.123 16.9634C13.1099 17.4336 14.2261 17.9407 15.2492 18.0502L15.249 18.0503C14.444 18.6122 13.554 19.041 12.613 19.3205C11.9208 19.4598 10.3701 18.7043 9.23203 17.926L9.23203 17.926ZM14.8739 17.1781C14.0839 16.9651 13.3182 16.6706 12.5891 16.299C13.9251 12.4865 12.781 8.52333 9.80014 6.63446C10.2288 5.3817 10.8943 4.46064 11.7871 3.89267C16.4106 7.38934 16.845 13.0866 14.8739 17.1778L14.8739 17.1781ZM0.806127 10.5C0.805972 9.53118 0.959539 8.56841 1.26094 7.64767C3.56041 8.77349 6.98373 8.39187 9.30244 7.26619V7.26635C10.7959 8.21189 11.8333 9.73192 12.1694 11.4679C11.0659 12.1887 6.1344 13.2083 2.94573 13.0095C1.69208 12.9312 1.21342 12.6844 1.03538 12.5343V12.5345C0.883365 11.867 0.806349 11.1847 0.805881 10.5002L0.806127 10.5ZM11.757 2.98498C10.4816 3.63445 9.52852 4.85734 8.9902 6.52506C7.74449 7.12061 6.39273 7.46207 5.01368 7.52965C5.48199 4.71329 8.49877 1.83606 11.5124 1.42614C12.5471 1.59758 13.5444 1.94618 14.4607 2.45665C13.5286 2.3903 12.5954 2.57275 11.7568 2.98506L11.757 2.98498ZM9.15586 1.34063C6.66193 2.56427 4.56049 5.07726 4.20426 7.53025C3.28114 7.51568 2.37214 7.30037 1.5405 6.89922C2.19228 5.37285 3.24369 4.0508 4.58394 3.07236C5.92435 2.09395 7.50385 1.49563 9.1559 1.34043L9.15586 1.34063ZM1.32977 13.5556C1.84036 13.7005 2.36615 13.7852 2.89626 13.8078C3.17658 13.8253 3.47334 13.8337 3.78356 13.8337C6.67514 13.8337 10.6786 13.1081 12.3019 12.305C12.4271 13.6434 12.241 14.9925 11.7578 16.2469C10.4022 17.1582 6.58366 17.8126 3.34104 16.8328C2.44755 15.8941 1.76213 14.7774 1.32949 13.5556L1.32977 13.5556ZM4.59759 17.9365C5.34806 18.0566 6.10691 18.1166 6.86699 18.116C7.27936 18.116 7.68673 18.0986 8.08406 18.0664C8.88305 18.7073 9.75841 19.2465 10.6902 19.6716C10.4632 19.6885 10.2346 19.7 10.0034 19.7C8.0599 19.7016 6.16641 19.0839 4.59759 17.9365V17.9365ZM16.3855 17.115C16.1746 17.2138 15.9453 17.2669 15.7124 17.2706C17.6472 12.9932 17.1698 7.19846 12.584 3.49771C13.6001 3.13065 14.7842 3.15622 16.0463 3.57351C17.3314 4.69159 18.2801 6.14538 18.786 7.77188C19.2921 9.39868 19.3355 11.1341 18.9117 12.7841C18.4877 14.4342 17.6129 15.9336 16.3855 17.1146L16.3855 17.115Z" fill="#D96A2C"/>
</svg>
