<svg width="150" height="40" viewBox="0 0 150 40" fill="none" xmlns="http://www.w3.org/2000/svg">
<rect width="150" height="40" rx="5" fill="#333333"/>
<path d="M49.7053 7.7H52.1623C53.0143 7.7 53.7253 8.006 54.2953 8.618C54.8653 9.224 55.1503 9.968 55.1503 10.85C55.1503 11.726 54.8653 12.473 54.2953 13.091C53.7253 13.697 53.0143 14 52.1623 14H49.7053V7.7ZM50.5423 13.208H52.1623C52.8043 13.208 53.3293 12.983 53.7373 12.533C54.1453 12.077 54.3493 11.516 54.3493 10.85C54.3493 10.184 54.1453 9.623 53.7373 9.167C53.3293 8.717 52.8043 8.492 52.1623 8.492H50.5423V13.208ZM60.2822 13.433C59.8262 13.889 59.2652 14.117 58.5992 14.117C57.9332 14.117 57.3722 13.889 56.9162 13.433C56.4602 12.977 56.2322 12.416 56.2322 11.75C56.2322 11.084 56.4602 10.523 56.9162 10.067C57.3722 9.611 57.9332 9.383 58.5992 9.383C59.2652 9.383 59.8262 9.611 60.2822 10.067C60.7442 10.529 60.9752 11.09 60.9752 11.75C60.9752 12.41 60.7442 12.971 60.2822 13.433ZM58.5992 13.352C59.0492 13.352 59.4272 13.199 59.7332 12.893C60.0392 12.587 60.1922 12.206 60.1922 11.75C60.1922 11.294 60.0392 10.913 59.7332 10.607C59.4272 10.301 59.0492 10.148 58.5992 10.148C58.1552 10.148 57.7802 10.301 57.4742 10.607C57.1682 10.913 57.0152 11.294 57.0152 11.75C57.0152 12.206 57.1682 12.587 57.4742 12.893C57.7802 13.199 58.1552 13.352 58.5992 13.352ZM66.4335 12.929L67.4235 9.5H68.2425L66.8475 14H66.0465L64.9935 10.67L63.9405 14H63.1395L61.7445 9.5H62.5635L63.5535 12.92L64.6155 9.5H65.3715L66.4335 12.929ZM71.6893 9.383C72.2173 9.383 72.6403 9.551 72.9583 9.887C73.2763 10.217 73.4353 10.667 73.4353 11.237V14H72.6523V11.282C72.6523 10.922 72.5533 10.64 72.3553 10.436C72.1573 10.232 71.8843 10.13 71.5363 10.13C71.1343 10.13 70.8163 10.256 70.5823 10.508C70.3483 10.754 70.2313 11.123 70.2313 11.615V14H69.4483V9.5H70.2313V10.148C70.5433 9.638 71.0293 9.383 71.6893 9.383ZM75.7114 14H74.9284V7.43H75.7114V14ZM81.1039 13.433C80.6479 13.889 80.0869 14.117 79.4209 14.117C78.7549 14.117 78.1939 13.889 77.7379 13.433C77.2819 12.977 77.0539 12.416 77.0539 11.75C77.0539 11.084 77.2819 10.523 77.7379 10.067C78.1939 9.611 78.7549 9.383 79.4209 9.383C80.0869 9.383 80.6479 9.611 81.1039 10.067C81.5659 10.529 81.7969 11.09 81.7969 11.75C81.7969 12.41 81.5659 12.971 81.1039 13.433ZM79.4209 13.352C79.8709 13.352 80.2489 13.199 80.5549 12.893C80.8609 12.587 81.0139 12.206 81.0139 11.75C81.0139 11.294 80.8609 10.913 80.5549 10.607C80.2489 10.301 79.8709 10.148 79.4209 10.148C78.9769 10.148 78.6019 10.301 78.2959 10.607C77.9899 10.913 77.8369 11.294 77.8369 11.75C77.8369 12.206 77.9899 12.587 78.2959 12.893C78.6019 13.199 78.9769 13.352 79.4209 13.352ZM86.846 10.274V9.5H87.629V14H86.846V13.226C86.462 13.82 85.895 14.117 85.145 14.117C84.509 14.117 83.972 13.889 83.534 13.433C83.09 12.971 82.868 12.41 82.868 11.75C82.868 11.096 83.09 10.538 83.534 10.076C83.978 9.614 84.515 9.383 85.145 9.383C85.895 9.383 86.462 9.68 86.846 10.274ZM85.244 13.361C85.7 13.361 86.081 13.208 86.387 12.902C86.693 12.584 86.846 12.2 86.846 11.75C86.846 11.294 86.693 10.913 86.387 10.607C86.081 10.295 85.7 10.139 85.244 10.139C84.794 10.139 84.416 10.295 84.11 10.607C83.804 10.913 83.651 11.294 83.651 11.75C83.651 12.2 83.804 12.584 84.11 12.902C84.416 13.208 84.794 13.361 85.244 13.361ZM92.9413 10.274V9.5H93.7243V14H92.9413V13.226C92.5573 13.82 91.9903 14.117 91.2403 14.117C90.6043 14.117 90.0673 13.889 89.6293 13.433C89.1853 12.971 88.9633 12.41 88.9633 11.75C88.9633 11.096 89.1853 10.538 89.6293 10.076C90.0733 9.614 90.6103 9.383 91.2403 9.383C91.9903 9.383 92.5573 9.68 92.9413 10.274ZM91.3393 13.361C91.7953 13.361 92.1763 13.208 92.4823 12.902C92.7883 12.584 92.9413 12.2 92.9413 11.75C92.9413 11.294 92.7883 10.913 92.4823 10.607C92.1763 10.295 91.7953 10.139 91.3393 10.139C90.8893 10.139 90.5113 10.295 90.2053 10.607C89.8993 10.913 89.7463 11.294 89.7463 11.75C89.7463 12.2 89.8993 12.584 90.2053 12.902C90.5113 13.208 90.8893 13.361 91.3393 13.361ZM99.0366 10.274V7.7H99.8196V14H99.0366V13.226C98.6526 13.82 98.0856 14.117 97.3356 14.117C96.6996 14.117 96.1626 13.889 95.7246 13.433C95.2806 12.971 95.0586 12.41 95.0586 11.75C95.0586 11.096 95.2806 10.538 95.7246 10.076C96.1686 9.614 96.7056 9.383 97.3356 9.383C98.0856 9.383 98.6526 9.68 99.0366 10.274ZM97.4346 13.361C97.8906 13.361 98.2716 13.208 98.5776 12.902C98.8836 12.584 99.0366 12.2 99.0366 11.75C99.0366 11.294 98.8836 10.913 98.5776 10.607C98.2716 10.295 97.8906 10.139 97.4346 10.139C96.9846 10.139 96.6066 10.295 96.3006 10.607C95.9946 10.913 95.8416 11.294 95.8416 11.75C95.8416 12.2 95.9946 12.584 96.3006 12.902C96.6066 13.208 96.9846 13.361 97.4346 13.361ZM107.854 13.433C107.398 13.889 106.837 14.117 106.171 14.117C105.505 14.117 104.944 13.889 104.488 13.433C104.032 12.977 103.804 12.416 103.804 11.75C103.804 11.084 104.032 10.523 104.488 10.067C104.944 9.611 105.505 9.383 106.171 9.383C106.837 9.383 107.398 9.611 107.854 10.067C108.316 10.529 108.547 11.09 108.547 11.75C108.547 12.41 108.316 12.971 107.854 13.433ZM106.171 13.352C106.621 13.352 106.999 13.199 107.305 12.893C107.611 12.587 107.764 12.206 107.764 11.75C107.764 11.294 107.611 10.913 107.305 10.607C106.999 10.301 106.621 10.148 106.171 10.148C105.727 10.148 105.352 10.301 105.046 10.607C104.74 10.913 104.587 11.294 104.587 11.75C104.587 12.206 104.74 12.587 105.046 12.893C105.352 13.199 105.727 13.352 106.171 13.352ZM112.111 9.383C112.639 9.383 113.062 9.551 113.38 9.887C113.698 10.217 113.857 10.667 113.857 11.237V14H113.074V11.282C113.074 10.922 112.975 10.64 112.777 10.436C112.579 10.232 112.306 10.13 111.958 10.13C111.556 10.13 111.238 10.256 111.004 10.508C110.77 10.754 110.653 11.123 110.653 11.615V14H109.87V9.5H110.653V10.148C110.965 9.638 111.451 9.383 112.111 9.383ZM120.448 9.5V10.256H119.251V12.695C119.251 12.917 119.293 13.076 119.377 13.172C119.467 13.262 119.602 13.31 119.782 13.316C119.962 13.316 120.184 13.31 120.448 13.298V14C119.758 14.09 119.254 14.033 118.936 13.829C118.624 13.625 118.468 13.247 118.468 12.695V10.256H117.577V9.5H118.468V8.474L119.251 8.24V9.5H120.448ZM124.016 9.383C124.544 9.383 124.967 9.551 125.285 9.887C125.603 10.217 125.762 10.667 125.762 11.237V14H124.979V11.282C124.979 10.922 124.88 10.64 124.682 10.436C124.484 10.232 124.211 10.13 123.863 10.13C123.461 10.13 123.143 10.256 122.909 10.508C122.675 10.754 122.558 11.123 122.558 11.615V14H121.775V7.7H122.558V10.148C122.87 9.638 123.356 9.383 124.016 9.383ZM131.575 12.11H127.804C127.882 12.506 128.065 12.818 128.353 13.046C128.641 13.268 129.001 13.379 129.433 13.379C130.027 13.379 130.459 13.16 130.729 12.722L131.395 13.1C130.951 13.778 130.291 14.117 129.415 14.117C128.707 14.117 128.125 13.895 127.669 13.451C127.225 12.995 127.003 12.428 127.003 11.75C127.003 11.066 127.222 10.502 127.66 10.058C128.098 9.608 128.665 9.383 129.361 9.383C130.021 9.383 130.558 9.617 130.972 10.085C131.392 10.541 131.602 11.099 131.602 11.759C131.602 11.873 131.593 11.99 131.575 12.11ZM129.361 10.121C128.947 10.121 128.599 10.238 128.317 10.472C128.041 10.706 127.87 11.024 127.804 11.426H130.81C130.744 11.012 130.579 10.691 130.315 10.463C130.051 10.235 129.733 10.121 129.361 10.121Z" fill="white"/>
<path fill-rule="evenodd" clip-rule="evenodd" d="M55.6232 23.2945V25.0559H59.8507C59.7844 25.8855 59.4395 26.6684 58.8721 27.2773C58.0169 28.1484 56.8333 28.6176 55.6135 28.569C53.0193 28.569 50.9163 26.466 50.9163 23.8718C50.9163 21.2776 53.0193 19.1747 55.6135 19.1747C56.8052 19.1552 57.9559 19.6092 58.8134 20.437L60.0562 19.1942C58.8867 18.01 57.2875 17.3499 55.6232 17.3643C53.2541 17.2721 51.0243 18.4835 49.8123 20.5212C48.6003 22.559 48.6003 25.0966 49.8123 27.1343C51.0243 29.1721 53.2541 30.3835 55.6232 30.2913C57.3179 30.3678 58.9629 29.7077 60.1345 28.4809C61.1597 27.3545 61.7071 25.8737 61.6611 24.3513C61.6642 23.9804 61.6314 23.6101 61.5632 23.2455L55.6232 23.2945ZM66.4753 22.0125C64.1797 22.0179 62.3226 23.8823 62.3262 26.1779C62.3298 28.4736 64.1927 30.3321 66.4884 30.3304C68.784 30.3286 70.6441 28.4671 70.6441 26.1714C70.6602 25.0601 70.2245 23.9899 69.4367 23.2059C68.649 22.4218 67.5768 21.9911 66.4655 22.0125H66.4753ZM71.4483 26.1844C71.4411 23.89 73.2933 22.0233 75.5876 22.0125C76.6988 21.9911 77.7711 22.4218 78.5588 23.2059C79.3465 23.9899 79.7823 25.0601 79.7661 26.1714C79.7661 28.4658 77.908 30.3267 75.6137 30.3303C73.3193 30.3339 71.4555 28.4788 71.4483 26.1844ZM73.1314 27.266C73.5783 28.2014 74.5515 28.7685 75.5857 28.6962C76.2348 28.6812 76.8502 28.4046 77.2924 27.9292C77.7347 27.4538 77.9661 26.82 77.9343 26.1715C77.9317 25.1348 77.2958 24.2051 76.3306 23.8269C75.3653 23.4487 74.267 23.699 73.561 24.4581C72.8549 25.2171 72.6846 26.3306 73.1314 27.266ZM64.0146 27.2735C64.4646 28.2083 65.4407 28.7727 66.4753 28.6963H66.4656C67.1146 28.6812 67.7301 28.4046 68.1723 27.9292C68.6145 27.4538 68.846 26.82 68.8141 26.1715C68.8113 25.134 68.1741 24.2039 67.2077 23.8266C66.2412 23.4492 65.1423 23.7015 64.4373 24.4626C63.7322 25.2237 63.5646 26.3387 64.0146 27.2735ZM96.4015 22.0125C98.0239 22.0722 99.441 23.1273 99.9635 24.6644L100.169 25.1048L94.6009 27.4044C94.9499 28.1992 95.7493 28.6998 96.6167 28.6668C97.4543 28.6689 98.2311 28.2303 98.662 27.5121L100.081 28.4906C99.3085 29.6468 98.0072 30.3378 96.6167 30.3303C95.5115 30.3466 94.4472 29.9126 93.6683 29.1282C92.8895 28.3439 92.4631 27.2765 92.4872 26.1714C92.4195 25.0916 92.8019 24.0319 93.5434 23.244C94.2849 22.4562 95.3195 22.0103 96.4015 22.0125ZM94.2852 26.0539C94.2451 25.4425 94.4528 24.8406 94.8615 24.3841C95.2702 23.9275 95.8455 23.6547 96.4576 23.627C97.1028 23.5845 97.7112 23.9311 98.0037 24.5078L94.2852 26.0539ZM91.5946 30.0857H89.7646V17.8535H91.5946V30.0857ZM86.7732 22.9422H86.7047C86.1469 22.3185 85.3494 21.9625 84.5127 21.9636C82.2915 22.0713 80.5459 23.9036 80.5459 26.1275C80.5459 28.3513 82.2915 30.1836 84.5127 30.2913C85.3522 30.3054 86.1548 29.9471 86.7047 29.3127H86.7634V29.9097C86.7634 31.5047 85.9121 32.3561 84.5421 32.3561C83.6088 32.3342 82.7813 31.7504 82.4479 30.8784L80.8528 31.5439C81.4671 33.038 82.9267 34.0097 84.5421 34.0001C86.6852 34.0001 88.4564 32.7377 88.4564 29.665V22.2572H86.7732V22.9422ZM84.6752 28.6959L84.6782 28.6962H84.6684L84.6752 28.6959ZM86.3242 27.9112C85.9042 28.3864 85.3086 28.6697 84.6752 28.6959C83.3682 28.5792 82.3662 27.484 82.3662 26.1715C82.3662 24.8579 83.3698 23.762 84.6782 23.6467C85.3105 23.6792 85.9029 23.9655 86.3211 24.4408C86.7393 24.9162 86.9479 25.5402 86.8996 26.1715C86.9535 26.8056 86.7456 27.4342 86.3242 27.9112ZM108.533 17.8536H104.159V30.0858H105.989V25.4473H108.543C109.965 25.5494 111.324 24.8489 112.066 23.632C112.808 22.4151 112.808 20.8857 112.066 19.6689C111.324 18.452 109.965 17.7514 108.543 17.8536H108.533ZM105.979 23.7251H108.534L108.573 23.7545C109.732 23.7545 110.672 22.8147 110.672 21.6554C110.672 20.4962 109.732 19.5564 108.573 19.5564H105.979V23.7251ZM119.818 21.9637C118.456 21.8823 117.176 22.6164 116.559 23.8327L118.183 24.5079C118.511 23.9048 119.163 23.5517 119.847 23.6077C120.316 23.5529 120.788 23.6889 121.156 23.9851C121.524 24.2814 121.757 24.713 121.804 25.1832V25.3104C121.216 24.9992 120.561 24.8378 119.896 24.8407C118.144 24.8407 116.373 25.8192 116.373 27.5905C116.408 28.3535 116.75 29.0699 117.321 29.5768C117.893 30.0836 118.645 30.3378 119.407 30.2815C120.345 30.3489 121.246 29.8986 121.755 29.1073H121.814V30.0858H123.575V25.3789C123.575 23.2358 121.951 21.993 119.867 21.993L119.818 21.9637ZM118.164 27.6296C118.164 28.3636 118.996 28.6669 119.593 28.6669L119.642 28.6963C120.744 28.6694 121.658 27.8346 121.785 26.7391C121.277 26.4557 120.703 26.3138 120.121 26.3281C119.201 26.3281 118.164 26.6511 118.164 27.6296ZM129.996 22.2571L127.902 27.561H127.843L125.671 22.2571H123.714L126.973 29.6747L125.113 33.7945H127.021L132.032 22.2571H129.996ZM115.375 30.0857H113.545V17.8535H115.375V30.0857Z" fill="white"/>
<path d="M18.4704 7.53997C18.1445 7.93108 17.98 8.43177 18.0104 8.93997V31.06C17.98 31.5682 18.1445 32.0689 18.4704 32.46L18.5404 32.53L30.9304 20.15V19.86L18.5404 7.46997L18.4704 7.53997Z" fill="url(#paint0_linear_104_3128)"/>
<path d="M35.0297 24.28L30.9297 20.15V19.86L35.0297 15.72L35.1197 15.77L40.0297 18.56C41.4297 19.35 41.4297 20.65 40.0297 21.45L35.1397 24.23L35.0297 24.28Z" fill="url(#paint1_linear_104_3128)"/>
<path d="M35.1497 24.22L30.9297 20L18.4697 32.46C19.0584 32.9775 19.9322 33.0027 20.5497 32.52L35.1597 24.22" fill="url(#paint2_linear_104_3128)"/>
<path d="M35.15 15.7801L20.54 7.48005C19.9224 6.99733 19.0487 7.02253 18.46 7.54005L30.93 20.0001L35.15 15.7801Z" fill="url(#paint3_linear_104_3128)"/>
<path opacity="0.2" d="M35.0297 24.1301L20.5397 32.3801C19.9468 32.8235 19.1327 32.8235 18.5397 32.3801L18.4697 32.4501L18.5397 32.5201C19.1316 32.9668 19.9479 32.9668 20.5397 32.5201L35.1497 24.2201L35.0297 24.1301Z" fill="black"/>
<path opacity="0.12" fill-rule="evenodd" clip-rule="evenodd" d="M35.0303 24.13L40.0303 21.3C40.547 21.045 40.9163 20.5648 41.0303 20C40.9787 20.6244 40.5973 21.1736 40.0303 21.44L35.1203 24.22L35.0303 24.13ZM18.0082 31.1147C18.0248 31.5546 18.1862 31.979 18.4704 32.32L18.5404 32.4L18.4704 32.47C18.154 32.0904 17.9898 31.6075 18.0082 31.1147ZM18.0082 31.1147C18.0088 31.0998 18.0095 31.0849 18.0104 31.07V30.92C18.0065 30.9851 18.0058 31.05 18.0082 31.1147Z" fill="black"/>
<path opacity="0.25" d="M20.54 7.61994L40.03 18.6999C40.5467 18.955 40.916 19.4351 41.03 19.9999C40.9785 19.3755 40.5971 18.8263 40.03 18.5599L20.54 7.47994C19.14 6.68994 18 7.34994 18 8.94994V9.09994C18.03 7.48994 19.15 6.82994 20.54 7.61994Z" fill="white"/>
<defs>
<linearGradient id="paint0_linear_104_3128" x1="25.5036" y1="-7.559" x2="5.66422" y2="-2.28266" gradientUnits="userSpaceOnUse">
<stop stop-color="#00A0FF"/>
<stop offset="0.01" stop-color="#00A1FF"/>
<stop offset="0.26" stop-color="#00BEFF"/>
<stop offset="0.51" stop-color="#00D2FF"/>
<stop offset="0.76" stop-color="#00DFFF"/>
<stop offset="1" stop-color="#00E3FF"/>
</linearGradient>
<linearGradient id="paint1_linear_104_3128" x1="41.8597" y1="9.79966" x2="17.6697" y2="9.79966" gradientUnits="userSpaceOnUse">
<stop stop-color="#FFE000"/>
<stop offset="0.41" stop-color="#FFBD00"/>
<stop offset="0.78" stop-color="#FFA500"/>
<stop offset="1" stop-color="#FF9C00"/>
</linearGradient>
<linearGradient id="paint2_linear_104_3128" x1="18.1036" y1="13.5275" x2="2.16717" y2="40.3341" gradientUnits="userSpaceOnUse">
<stop stop-color="#FF3A44"/>
<stop offset="1" stop-color="#C31162"/>
</linearGradient>
<linearGradient id="paint3_linear_104_3128" x1="8.73998" y1="4.09606" x2="15.8533" y2="16.0665" gradientUnits="userSpaceOnUse">
<stop stop-color="#32A071"/>
<stop offset="0.07" stop-color="#2DA771"/>
<stop offset="0.48" stop-color="#15CF74"/>
<stop offset="0.8" stop-color="#06E775"/>
<stop offset="1" stop-color="#00F076"/>
</linearGradient>
</defs>
</svg>
