<svg width="20" height="26" viewBox="0 0 20 26" fill="none" xmlns="http://www.w3.org/2000/svg">
<path d="M5.15075 19C4.81244 19 4.47523 18.9197 4.17082 18.7615L1.34004 17.2902C0.420569 16.8122 -0.110315 15.8062 0.019357 14.7865L0.707163 9.37348C0.809138 8.56997 1.3419 7.87712 2.09726 7.56542C4.6141 6.5266 7.27271 6 10 6C12.7269 6 15.386 6.5266 17.9028 7.56542C18.6581 7.87714 19.1909 8.56997 19.2929 9.37348L19.9807 14.7865C20.1102 15.8062 19.5795 16.8124 18.66 17.2904L15.8249 18.7645C15.3087 19.0329 14.6989 19.0723 14.1516 18.8729C13.6044 18.6733 13.1663 18.2517 12.9497 17.7161L12.9352 17.68C12.6497 16.9746 12.124 16.3869 11.4547 16.0253L11.3914 15.991C10.52 15.5202 9.47953 15.5199 8.60808 15.9899C7.96105 16.3389 7.4456 16.9004 7.15677 17.5712L7.08661 17.7341C6.85679 18.2675 6.40833 18.6851 5.8562 18.8798C5.62787 18.9602 5.38893 19 5.15072 19L5.15075 19ZM9.99988 6.83527C7.41363 6.83527 4.82728 7.33241 2.4182 8.32668C1.93791 8.52498 1.59924 8.96541 1.53426 9.47636L0.846458 14.8894C0.759927 15.5697 1.11424 16.2412 1.72777 16.5599L4.55855 18.0313C4.87658 18.1966 5.23797 18.2218 5.57644 18.1027C5.91475 17.9834 6.17883 17.7378 6.31951 17.4107L6.38967 17.2478C6.7518 16.4071 7.3977 15.7032 8.20889 15.2657C9.33044 14.6607 10.6695 14.6611 11.7907 15.2668L11.8544 15.3012C12.6932 15.7544 13.352 16.4903 13.7093 17.3736L13.7238 17.4096C13.8549 17.7333 14.1092 17.9782 14.4401 18.099C14.771 18.2196 15.1251 18.1968 15.4374 18.0344L18.2724 16.5603C18.886 16.2412 19.2401 15.5697 19.1537 14.8894L18.4659 9.47636C18.401 8.96541 18.0623 8.52479 17.582 8.32668C15.1727 7.33222 12.5861 6.83508 9.99984 6.83508L9.99988 6.83527ZM18.4657 16.9256H18.4663H18.4657Z" fill="#D96A2C"/>
<path d="M3.35014 13.9813C3.28698 13.9672 3.22855 13.9282 3.18249 13.8635C3.05142 13.6793 3.07115 13.3567 3.22654 13.1432L5.1273 10.5307C5.28268 10.3172 5.51484 10.2934 5.64608 10.4776C5.77715 10.6618 5.75742 10.9843 5.60203 11.1979L3.70127 13.8104C3.60032 13.9491 3.4671 14.0076 3.35016 13.9813L3.35014 13.9813Z" fill="#D96A2C"/>
</svg>
