<svg width="20" height="14" viewBox="0 0 20 14" fill="none" xmlns="http://www.w3.org/2000/svg">
<path d="M5.15075 13.5C4.81244 13.5 4.47523 13.4197 4.17082 13.2615L1.34004 11.7902C0.420569 11.3122 -0.110315 10.3062 0.019357 9.28652L0.707163 3.87348C0.809138 3.06997 1.3419 2.37712 2.09726 2.06542C4.6141 1.0266 7.27271 0.5 10 0.5C12.7269 0.5 15.386 1.0266 17.9028 2.06542C18.6581 2.37714 19.1909 3.06997 19.2929 3.87348L19.9807 9.28652C20.1102 10.3062 19.5795 11.3124 18.66 11.7904L15.8249 13.2645C15.3087 13.5329 14.6989 13.5723 14.1516 13.3729C13.6044 13.1733 13.1663 12.7517 12.9497 12.2161L12.9352 12.18C12.6497 11.4746 12.124 10.8869 11.4547 10.5253L11.3914 10.491C10.52 10.0202 9.47953 10.0199 8.60808 10.4899C7.96105 10.8389 7.4456 11.4004 7.15677 12.0712L7.08661 12.2341C6.85679 12.7675 6.40833 13.1851 5.8562 13.3798C5.62787 13.4602 5.38893 13.5 5.15072 13.5L5.15075 13.5ZM9.99988 1.33527C7.41363 1.33527 4.82728 1.83241 2.4182 2.82668C1.93791 3.02498 1.59924 3.46541 1.53426 3.97636L0.846458 9.3894C0.759927 10.0697 1.11424 10.7412 1.72777 11.0599L4.55855 12.5313C4.87658 12.6966 5.23797 12.7218 5.57644 12.6027C5.91475 12.4834 6.17883 12.2378 6.31951 11.9107L6.38967 11.7478C6.7518 10.9071 7.3977 10.2032 8.20889 9.76571C9.33044 9.16068 10.6695 9.16105 11.7907 9.76681L11.8544 9.80124C12.6932 10.2544 13.352 10.9903 13.7093 11.8736L13.7238 11.9096C13.8549 12.2333 14.1092 12.4782 14.4401 12.599C14.771 12.7196 15.1251 12.6968 15.4374 12.5344L18.2724 11.0603C18.886 10.7412 19.2401 10.0697 19.1537 9.3894L18.4659 3.97636C18.401 3.46541 18.0623 3.02479 17.582 2.82668C15.1727 1.83222 12.5861 1.33508 9.99984 1.33508L9.99988 1.33527ZM18.4657 11.4256H18.4663H18.4657Z" fill="#D96A2C"/>
</svg>
