<svg width="20" height="27" viewBox="0 0 20 27" fill="none" xmlns="http://www.w3.org/2000/svg">
<path d="M13.6578 4.19041C11.628 3.39462 9.39363 3.28354 7.29447 3.87396C5.1955 4.46456 3.34704 5.72448 2.03028 7.46213C0.713479 9.19966 0.000634909 11.3196 0 13.4995C0 13.6842 0.00589032 13.8753 0.0178258 14.0833L0.0187558 14.0991L0.0186008 14.0992C0.170507 16.6427 1.28826 19.0325 3.14338 20.7797C4.99851 22.527 7.45084 23.5 10 23.5C12.5492 23.5 15.0015 22.527 16.8566 20.7797C18.7117 19.0324 19.8295 16.6426 19.9814 14.0992L19.9823 14.0834C19.9941 13.8753 20 13.6842 20 13.4995C19.9984 11.4909 19.393 9.52946 18.2621 7.86917C17.1311 6.20911 15.5269 4.92738 13.6582 4.19034L13.6578 4.19041ZM16.5676 11.366L17.5375 8.38402L17.5373 8.38418C18.5056 9.81175 19.049 11.4845 19.1046 13.2083L16.5676 11.366ZM16.8789 7.53479L15.6923 11.183L14.2224 11.6607L10.4444 8.91869V7.37099L13.5529 5.11275V5.1126C14.8308 5.65778 15.9681 6.48594 16.8787 7.5348L16.8789 7.53479ZM12.2373 16.5785H7.76278L6.37809 12.3229L9.84112 9.80941H10.1589L13.6219 12.3229L12.2373 16.5785ZM12.5414 4.7486L9.99993 6.59507L7.45843 4.7486C9.11919 4.27114 10.8808 4.27114 12.5413 4.7486H12.5414ZM6.44749 5.11232L9.55569 7.37055V8.91825L5.7777 11.6604L4.30793 11.1827L3.12137 7.53452C4.03218 6.48554 5.16946 5.65738 6.44749 5.11232ZM0.895614 13.2083C0.95126 11.4844 1.49457 9.81148 2.46289 8.38371L3.43291 11.3656L0.895614 13.2083ZM0.928011 14.2833L4.03359 12.028L5.5032 12.5058L6.9477 16.9447L6.03795 18.1964H2.19783C1.48185 17.0058 1.04753 15.6672 0.928011 14.2831V14.2833ZM2.80266 19.0853L5.94125 19.0851L6.91207 22.0717L6.91222 22.0718C5.2859 21.4877 3.86013 20.4516 2.80277 19.0851L2.80266 19.0853ZM7.94383 22.3703L6.75695 18.7191L7.66685 17.4672H12.3338L13.2436 18.7189L12.0565 22.3703C10.703 22.6797 9.29742 22.6797 7.94391 22.3703H7.94383ZM13.0882 22.0719L14.0592 19.0851H17.1979C16.1405 20.4518 14.7147 21.4879 13.0881 22.0719H13.0882ZM17.8024 18.1965H13.9624L13.0526 16.9448L14.497 12.5059L15.9667 12.0281L19.0722 14.2834C18.9525 15.6674 18.5182 17.0059 17.8023 18.1967L17.8024 18.1965Z" fill="#D96A2C"/>
</svg>
