<svg width="20" height="27" viewBox="0 0 20 27" fill="none" xmlns="http://www.w3.org/2000/svg">
<path d="M10 21.5C15.6075 21.5 20 18.9809 20 15.765V11.235C20 8.01912 15.6071 5.5 10 5.5C4.39286 5.5 0 8.01908 0 11.235V15.765C0 18.9807 4.39246 21.4996 10 21.4996V21.5ZM10 6.29206C15.073 6.29206 19.2 8.50945 19.2 11.235C19.2 13.9607 15.073 16.1779 10 16.1779C4.92738 16.1779 0.8 13.9605 0.8 11.235C0.8 8.50949 4.92738 6.29206 10 6.29206ZM0.8 13.5212C2.31198 15.5679 5.81746 16.9699 10 16.9699C14.1825 16.9699 17.6881 15.5679 19.2 13.5211V15.7648C19.2 18.4903 15.073 20.7077 10 20.7077C4.92738 20.7077 0.8 18.4904 0.8 15.7648V13.5212Z" fill="#D96A2C"/>
</svg>
