<svg width="198" height="64" viewBox="0 0 198 64" fill="none" xmlns="http://www.w3.org/2000/svg">
<path d="M87.6799 20.4316H90.9643L87.0096 36.0716H83.055L81.625 30.4188L80.5079 24.2076H80.0834L78.9662 30.4188L77.5363 36.0716H73.5816L69.627 20.4316H72.9113L74.7881 27.9165L75.5925 32.5861L76.3968 27.9165L78.2736 20.4316H82.3177L84.1721 27.9165L84.9988 32.6308L85.8031 27.9165L87.6799 20.4316Z" fill="#D96A2C"/>
<path d="M94.3355 18.108C94.9164 18.108 95.393 18.2867 95.7654 18.6442C96.1378 18.9868 96.324 19.4336 96.324 19.9848C96.324 20.5359 96.1378 20.9902 95.7654 21.3477C95.393 21.7052 94.9164 21.8839 94.3355 21.8839C93.7694 21.8839 93.2928 21.7052 92.9055 21.3477C92.5331 20.9902 92.347 20.5359 92.347 19.9848C92.347 19.4485 92.5331 19.0017 92.9055 18.6442C93.2928 18.2867 93.7694 18.108 94.3355 18.108ZM92.7268 36.0716V23.783H95.9218V36.0716H92.7268Z" fill="#D96A2C"/>
<path d="M105.503 23.5149C106.888 23.5149 107.975 23.9469 108.765 24.8108C109.554 25.6747 109.949 26.8589 109.949 28.3633V36.0716H106.754V29.0559C106.754 28.2218 106.575 27.5962 106.218 27.1791C105.86 26.7621 105.272 26.5535 104.453 26.5535C102.606 26.5535 101.682 27.5739 101.682 29.6145V36.0716H98.487V23.783H101.682V25.4588C102.606 24.1629 103.879 23.5149 105.503 23.5149Z" fill="#D96A2C"/>
<path d="M119.401 23.5149C120.787 23.5149 121.874 23.9469 122.664 24.8108C123.453 25.6747 123.848 26.8589 123.848 28.3633V36.0716H120.653V29.0559C120.653 28.2218 120.474 27.5962 120.116 27.1791C119.759 26.7621 119.171 26.5535 118.351 26.5535C116.504 26.5535 115.581 27.5739 115.581 29.6145V36.0716H112.386V23.783H115.581V25.4588C116.504 24.1629 117.778 23.5149 119.401 23.5149Z" fill="#D96A2C"/>
<path d="M127.893 18.108C128.474 18.108 128.951 18.2867 129.323 18.6442C129.696 18.9868 129.882 19.4336 129.882 19.9848C129.882 20.5359 129.696 20.9902 129.323 21.3477C128.951 21.7052 128.474 21.8839 127.893 21.8839C127.327 21.8839 126.851 21.7052 126.463 21.3477C126.091 20.9902 125.905 20.5359 125.905 19.9848C125.905 19.4485 126.091 19.0017 126.463 18.6442C126.851 18.2867 127.327 18.108 127.893 18.108ZM126.285 36.0716V23.783H129.48V36.0716H126.285Z" fill="#D96A2C"/>
<path d="M139.061 23.5149C140.446 23.5149 141.533 23.9469 142.323 24.8108C143.112 25.6747 143.507 26.8589 143.507 28.3633V36.0716H140.312V29.0559C140.312 28.2218 140.133 27.5962 139.775 27.1791C139.418 26.7621 138.83 26.5535 138.01 26.5535C136.163 26.5535 135.24 27.5739 135.24 29.6145V36.0716H132.045V23.783H135.24V25.4588C136.163 24.1629 137.437 23.5149 139.061 23.5149Z" fill="#D96A2C"/>
<path d="M155.127 23.783H158.322V35.9152C158.322 37.7324 157.77 39.1847 156.668 40.272C155.566 41.3743 154.091 41.9254 152.244 41.9254C150.651 41.9254 149.265 41.5232 148.089 40.7189C146.927 39.9145 146.234 38.7453 146.011 37.2111H149.317C149.645 38.4623 150.591 39.0879 152.155 39.0879C154.136 39.0879 155.127 38.0601 155.127 36.0045V34.2395C154.173 35.5205 152.885 36.1609 151.261 36.1609C149.653 36.1609 148.312 35.5651 147.24 34.3735C146.182 33.1819 145.653 31.67 145.653 29.8379C145.653 28.0058 146.189 26.494 147.262 25.3024C148.334 24.1107 149.667 23.5149 151.261 23.5149C152.9 23.5149 154.188 24.1703 155.127 25.4811V23.783ZM151.976 33.1223C152.885 33.1223 153.637 32.817 154.233 32.2063C154.829 31.5956 155.127 30.8061 155.127 29.8379C155.127 28.8846 154.821 28.1026 154.21 27.4919C153.615 26.8663 152.87 26.5535 151.976 26.5535C151.082 26.5535 150.338 26.8663 149.742 27.4919C149.161 28.1026 148.871 28.8846 148.871 29.8379C148.871 30.7912 149.161 31.5807 149.742 32.2063C150.338 32.817 151.082 33.1223 151.976 33.1223Z" fill="#D96A2C"/>
<path d="M70.6994 58.4144V42.7744H73.8944V58.4144H70.6994Z" fill="#D96A2C"/>
<path d="M91.544 45.8577C92.8548 45.8577 93.89 46.2822 94.6497 47.1313C95.4093 47.9803 95.7891 49.1496 95.7891 50.6391V58.4144H92.5941V51.3317C92.5941 50.5274 92.4228 49.9241 92.0802 49.5219C91.7525 49.1049 91.2163 48.8963 90.4716 48.8963C89.6374 48.8963 89.0044 49.1645 88.5724 49.7007C88.1405 50.222 87.9245 50.9742 87.9245 51.9573V58.4144H84.7295V51.3317C84.7295 50.5274 84.5582 49.9241 84.2156 49.5219C83.8879 49.1049 83.3517 48.8963 82.6069 48.8963C81.7728 48.8963 81.1323 49.1645 80.6854 49.7007C80.2535 50.222 80.0375 50.9742 80.0375 51.9573L80.0598 58.4144H76.8425V46.1258H80.0598V47.7569C80.9535 46.4908 82.1675 45.8577 83.7017 45.8577C85.4891 45.8577 86.7329 46.6323 87.4329 48.1814C88.3862 46.6323 89.7566 45.8577 91.544 45.8577Z" fill="#D96A2C"/>
<path d="M105.42 45.8577C107.013 45.8577 108.346 46.461 109.419 47.6675C110.491 48.8591 111.028 50.3933 111.028 52.2701C111.028 54.1469 110.491 55.6885 109.419 56.8951C108.361 58.0867 107.028 58.6825 105.42 58.6825C103.796 58.6825 102.5 58.042 101.532 56.761V64.0001H98.3369V46.1258H101.532V47.8462C102.485 46.5206 103.781 45.8577 105.42 45.8577ZM104.682 55.6439C105.576 55.6439 106.313 55.3311 106.894 54.7055C107.49 54.0799 107.788 53.2681 107.788 52.2701C107.788 51.2721 107.497 50.4603 106.917 49.8347C106.336 49.2091 105.591 48.8963 104.682 48.8963C103.774 48.8963 103.021 49.2091 102.426 49.8347C101.83 50.4603 101.532 51.2721 101.532 52.2701C101.532 53.2681 101.83 54.0799 102.426 54.7055C103.021 55.3311 103.774 55.6439 104.682 55.6439Z" fill="#D96A2C"/>
<path d="M122.441 46.1258H125.636L125.614 58.4144H122.419V56.761C121.481 58.042 120.2 58.6825 118.576 58.6825C116.953 58.6825 115.612 58.0867 114.554 56.8951C113.497 55.6885 112.968 54.1469 112.968 52.2701C112.968 50.3933 113.497 48.8591 114.554 47.6675C115.627 46.461 116.96 45.8577 118.554 45.8577C120.192 45.8577 121.488 46.5206 122.441 47.8462V46.1258ZM119.291 55.6439C120.2 55.6439 120.952 55.3311 121.548 54.7055C122.144 54.0799 122.441 53.2681 122.441 52.2701C122.441 51.2721 122.144 50.4603 121.548 49.8347C120.952 49.2091 120.2 48.8963 119.291 48.8963C118.383 48.8963 117.638 49.2091 117.057 49.8347C116.476 50.4603 116.185 51.2721 116.185 52.2701C116.185 53.2681 116.476 54.0799 117.057 54.7055C117.653 55.3311 118.397 55.6439 119.291 55.6439Z" fill="#D96A2C"/>
<path d="M134.282 58.6825C132.45 58.6825 130.924 58.0718 129.702 56.8504C128.496 55.629 127.892 54.1022 127.892 52.2701C127.892 50.438 128.496 48.9112 129.702 47.6898C130.924 46.4684 132.458 45.8577 134.305 45.8577C135.854 45.8577 137.202 46.3046 138.349 47.1983C139.511 48.0771 140.203 49.2762 140.427 50.7955H137.142C136.964 50.155 136.614 49.6634 136.092 49.3209C135.586 48.9783 134.99 48.807 134.305 48.807C133.337 48.807 132.562 49.1272 131.981 49.7677C131.4 50.4082 131.117 51.2423 131.132 52.2701C131.117 53.2979 131.4 54.132 131.981 54.7725C132.577 55.413 133.344 55.7332 134.282 55.7332C134.968 55.7332 135.571 55.5619 136.092 55.2193C136.614 54.8768 136.964 54.3778 137.142 53.7224H140.427C140.188 55.2864 139.488 56.5078 138.326 57.3866C137.18 58.2505 135.832 58.6825 134.282 58.6825Z" fill="#D96A2C"/>
<path d="M151.591 55.1076L152.127 57.6994C151.755 57.9526 151.218 58.1835 150.518 58.392C149.833 58.5857 149.148 58.6825 148.463 58.6825C147.137 58.6825 146.035 58.2654 145.156 57.4313C144.292 56.5972 143.86 55.346 143.86 53.6777V49.1421H141.671V46.1258H143.86V43.467L147.055 42.7744V46.1258H151.613V49.1421H147.055V53.499C147.055 54.9736 147.711 55.7109 149.021 55.7109C149.602 55.7109 150.459 55.5098 151.591 55.1076Z" fill="#D96A2C"/>
<path d="M172.619 58.4144L171.301 54.7278H164.978L163.637 58.4144H160.264L166.117 42.7744H170.161L176.015 58.4144H172.619ZM166.073 51.6892H170.184L168.128 46.0141L166.073 51.6892Z" fill="#D96A2C"/>
<path d="M188.03 49.9911C188.849 50.2593 189.467 50.7433 189.884 51.4434C190.301 52.1286 190.51 52.9478 190.51 53.9011C190.51 55.3162 190.033 56.4259 189.08 57.2302C188.142 58.0196 186.861 58.4144 185.237 58.4144H178.333V42.7744H185.192C186.667 42.7744 187.829 43.1244 188.678 43.8245C189.542 44.5246 189.974 45.53 189.974 46.8408C189.974 48.2856 189.326 49.3357 188.03 49.9911ZM186.756 47.377C186.756 46.811 186.593 46.4088 186.265 46.1705C185.952 45.9322 185.453 45.813 184.768 45.813H181.528V48.9634H184.857C186.123 48.9634 186.756 48.4346 186.756 47.377ZM185.17 55.3757C185.945 55.3757 186.488 55.2268 186.801 54.9289C187.114 54.631 187.27 54.199 187.27 53.633C187.27 53.0372 187.114 52.5978 186.801 52.3148C186.488 52.0318 185.937 51.8903 185.148 51.8903H181.528V55.3757H185.17Z" fill="#D96A2C"/>
<rect opacity="0.8" x="53.1167" y="15.2034" width="10.9413" height="25.461" rx="5.47067" transform="rotate(20.3961 53.1167 15.2034)" fill="url(#paint0_linear_805_367)"/>
<rect width="10.9413" height="43.6446" rx="5.47067" transform="matrix(-0.937305 0.348509 0.348509 0.937305 33.3477 15.2549)" fill="#D96A2C"/>
<rect width="10.9413" height="59.8221" rx="5.47067" transform="matrix(-0.937305 0.348509 0.348509 0.937305 10.2554 0)" fill="#D96A2C"/>
<rect x="48.1597" y="28.8809" width="10.9413" height="10.9403" rx="5.47013" transform="rotate(20.3961 48.1597 28.8809)" fill="#D96A2C"/>
<path d="M192.933 44.226V43.9316H194.686V44.226H193.979V46.1978H193.639V44.226H192.933Z" fill="#D96A2C"/>
<path d="M195.074 43.9316H195.489L196.21 45.6932H196.237L196.959 43.9316H197.373V46.1978H197.048V44.5579H197.027L196.359 46.1945H196.089L195.42 44.5568H195.399V46.1978H195.074V43.9316Z" fill="#D96A2C"/>
<defs>
<linearGradient id="paint0_linear_805_367" x1="58.7764" y1="14.8248" x2="59.3082" y2="36.1536" gradientUnits="userSpaceOnUse">
<stop stop-color="#D96A2C"/>
<stop offset="1" stop-color="#D96A2C"/>
</linearGradient>
</defs>
</svg>
