<svg width="20" height="21" viewBox="0 0 20 21" fill="none" xmlns="http://www.w3.org/2000/svg">
<path d="M19.9998 9.93665C19.9998 7.52683 18.8975 5.2262 16.8961 3.4546C15.5992 2.33092 14.0831 1.49654 12.4464 1.00597C10.8099 0.515407 9.08935 0.379461 7.39759 0.607316C2.275 1.30633 0.365746 6.25054 0.0715022 8.767C-0.203944 11.0282 0.321837 13.3151 1.55529 15.2211C1.90159 15.7448 2.41269 16.1346 3.00561 16.327V17.2829C3.00821 17.5614 3.10511 17.8307 3.28012 18.0457C3.45532 18.2606 3.69784 18.4082 3.96754 18.464L13.5738 20.474V20.4738C13.656 20.491 13.7397 20.4998 13.8237 20.5C14.1046 20.5004 14.3767 20.4021 14.5941 20.2221C14.871 19.9955 15.0323 19.6545 15.0327 19.294V18.8641C16.5808 19.1084 18.1459 18.5429 19.1917 17.3618C19.7109 16.781 19.999 16.0259 20 15.2425L19.9998 9.93665ZM11.0349 11.826C10.6367 11.6409 10.2869 11.3642 10.0131 11.0177C9.74493 10.6767 9.55951 10.2769 9.47153 9.85016C9.3499 9.24983 9.5331 8.62766 9.95975 8.19282C10.4087 7.72693 11.0554 7.51506 11.6886 7.62638L12.194 7.71413L11.7273 12.1498L11.0349 11.826ZM13.0151 7.85671L19.0833 8.90861C19.1363 9.2487 19.1642 9.59239 19.1666 9.9366V15.2424C19.1653 15.3672 19.1538 15.4919 19.1324 15.6149L12.5262 12.5237L13.0151 7.85671ZM14.0687 19.5679C13.9774 19.6432 13.8573 19.6724 13.7421 19.6472L4.1359 17.6364C3.96684 17.6038 3.84316 17.4563 3.83888 17.2819V16.5227L14.2003 18.7022V19.2907C14.2006 19.3986 14.1521 19.5008 14.0686 19.5679L14.0687 19.5679ZM14.9211 17.9945L3.50606 15.5932V15.593C2.99737 15.4937 2.54805 15.1947 2.25624 14.7612C1.13011 13.0207 0.650086 10.932 0.901526 8.86682C1.16897 6.57467 2.89548 2.07528 7.51058 1.44279C9.08421 1.23979 10.6824 1.3701 12.2035 1.82525C13.7249 2.2804 15.1362 3.0508 16.348 4.08727C17.553 5.12075 18.4359 6.48619 18.8893 8.01771L11.827 6.79444C10.9228 6.63606 9.9997 6.93944 9.35974 7.60529C8.74078 8.24029 8.47668 9.14699 8.65651 10.0206C8.77145 10.5778 9.01397 11.0998 9.36474 11.5446C9.71941 11.9932 10.1727 12.3517 10.6884 12.5916L18.8501 16.4108C18.7716 16.5485 18.6797 16.6778 18.5754 16.7967C17.6529 17.8232 16.2627 18.2787 14.921 17.9938L14.9211 17.9945Z" fill="#D96A2C"/>
</svg>
