<svg width="20" height="27" viewBox="0 0 20 27" fill="none" xmlns="http://www.w3.org/2000/svg">
<path d="M17.945 18.4351L2.23935 18.4268C1.99354 18.4268 1.79443 18.2175 1.79443 17.9592V8.39564C1.79443 7.86144 2.20803 7.42676 2.71599 7.42676L17.4678 7.43515C17.9761 7.43515 18.3897 7.86983 18.3897 8.40403V17.9676C18.3897 18.2259 18.1908 18.4351 17.945 18.4351ZM2.68435 17.4916L17.5 17.5V8.40416C17.5 8.38562 17.4855 8.37042 17.4679 8.37042L2.71611 8.36203C2.69848 8.36203 2.68434 8.37723 2.68434 8.39576L2.68435 17.4916Z" fill="#D96A2C"/>
<path d="M19.1397 22.5H0.860018C0.536576 22.5 0.243619 22.2624 0.0956619 21.8805C-0.0521286 21.4986 -0.0273592 21.0442 0.160839 20.6946L1.88085 17.5L2.62322 18.2045L0.962987 21.2883H19.037L17.3767 18.2045L18.1191 17.5L19.8391 20.695C20.0273 21.0447 20.0523 21.4991 19.9041 21.8809C19.756 22.2628 19.4634 22.5 19.1398 22.5H19.1397Z" fill="#D96A2C"/>
<path d="M13.4893 21.5H6.51068C6.321 21.5 6.14683 21.4187 6.05856 21.289C5.97029 21.1592 5.98251 21.0022 6.09048 20.8817L7.17235 19.6704C7.26756 19.5638 7.42495 19.5 7.59255 19.5H12.4076C12.5756 19.5 12.7326 19.5637 12.8278 19.6704L13.9097 20.8817C14.0174 21.0025 14.0297 21.1592 13.9416 21.289C13.8535 21.4187 13.6791 21.5 13.4893 21.5H13.4893ZM7.48321 20.7112H12.5163L12.1389 20.2887H7.86031L7.48321 20.7112Z" fill="#D96A2C"/>
</svg>
