<svg width="355" height="200" viewBox="0 0 355 200" fill="none" xmlns="http://www.w3.org/2000/svg">
<mask id="mask0_104_4039" style="mask-type:alpha" maskUnits="userSpaceOnUse" x="0" y="0" width="355" height="200">
<rect width="355" height="200" rx="8" fill="#D9D9D9"/>
</mask>
<g mask="url(#mask0_104_4039)">
<g filter="url(#filter0_d_104_4039)">
<rect width="355" height="200" fill="#181A20"/>
</g>
<path d="M174.232 115.793C107.736 115.793 60.4784 119.906 60.4784 119.906V121.693H178.162L179.416 115.781C177.893 115.781 176.088 115.781 174.232 115.793ZM182.962 115.793L181.886 121.706H289.227V119.919C289.227 119.906 244.888 116.128 182.962 115.793Z" fill="white"/>
<path d="M89.5344 80.6928L83.288 110.228H105.752L106.648 104.676H91.3136L92.7344 97.8768H106.648L107.723 91.9646H93.8224L95.0768 86.4122H110.59L111.486 80.6799L89.5344 80.6928ZM164.606 87.8517C155.851 87.8517 152.306 92.5301 150.872 99.3163C149.438 106.09 152.779 110.948 159.781 110.948C168.101 110.948 172.082 106.27 173.515 99.4834C174.962 92.71 172.683 87.8517 164.606 87.8517ZM214.706 87.8517C205.95 87.8517 202.584 92.5301 201.15 99.3163C199.717 106.103 202.878 110.948 209.893 110.948C216.997 110.948 221.016 107.555 222.91 102.35H216.318C215.422 104.457 213.976 105.935 210.968 105.935C207.038 105.935 206.68 102.568 207.397 99.1364C208.126 95.7047 209.88 92.3373 213.81 92.3373C216.843 92.3373 217.675 94.4708 217.56 96.99H223.973C224.357 91.5533 221.746 87.8517 214.706 87.8517ZM191.704 88.2116C189.733 88.2116 186.546 88.6871 184.933 90.358L185.291 88.7514H178.878C178.661 90.1652 172.286 121.693 172.286 121.693H178.533L181.208 108.802C182.437 110.717 185.918 111.128 187.454 111.128C193.739 111.128 196.632 105.023 197.797 99.4962C198.987 93.6997 197.822 88.2116 191.704 88.2116ZM239.128 88.2116C227.915 87.9031 228.427 95.1906 228.427 95.1906H234.315C234.315 95.1906 234.238 92.3244 238.411 92.3244C238.411 92.3244 242.187 92.1574 241.624 94.8307C241.624 94.8307 241.547 97.1442 238.949 96.9771C238.949 96.9771 226.52 95.679 225.573 104.856C225.573 104.856 225.061 111.295 232.344 111.295C232.344 111.295 237.131 111.154 239.294 108.789C239.294 108.789 239.896 110.215 241.97 110.215H245.541L246.616 105.923L246.078 105.563C246.078 105.563 245.643 105.614 245.899 104.483L248.216 93.1984C249.227 88.3144 239.128 88.2116 239.128 88.2116ZM113.611 88.7514L110.578 102.722C110.424 103.455 110.168 104.792 110.219 106.128C110.322 109.251 114.149 110.781 116.286 110.781C119.269 110.781 121.176 110.035 122.699 108.814V110.241H129.112C129.253 108.981 129.432 107.735 129.65 106.488L133.4 88.7514H126.974L124.299 101.103C123.544 104.239 121.266 104.856 119.666 104.856C116.914 104.856 116.734 103.648 117.17 101.63L120.024 88.7386H113.611V88.7514ZM137.675 88.7514C137.432 90.3451 133.4 110.241 133.4 110.241H140.171L142.488 99.1364C142.77 97.7354 142.68 96.2831 143.563 95.0235C144.267 94.0081 146.046 93.674 147.134 93.5969H150.168L151.41 88.7643C148.466 88.7643 146.546 88.7 144.101 90.3708V88.7643L137.675 88.7514ZM254.104 88.7514C253.848 90.3451 249.829 110.241 249.829 110.241H256.6L258.738 99.1364C259.019 97.7354 259.109 96.2831 259.992 95.0235C260.696 94.0081 262.475 93.674 263.563 93.5969H266.418L267.838 88.7643C264.894 88.7643 262.974 88.7 260.53 90.3708V88.7643L254.104 88.7514ZM163.71 92.3373C167.64 92.3373 167.819 95.8846 167.102 99.3163C166.386 102.748 165.195 105.935 160.856 105.935C156.926 105.935 156.568 102.568 157.285 99.1364C158.014 95.7047 159.781 92.3373 163.71 92.3373ZM188.85 93.2241C191.768 93.2241 192.574 96.0132 191.883 99.3163C191.179 102.619 189.464 105.408 186.174 105.408C182.718 105.408 182.334 102.272 182.962 99.3163C183.589 96.3473 185.394 93.2241 188.85 93.2241ZM240.024 100.743C240.024 100.743 239.09 106.655 234.315 106.655C234.315 106.655 231.64 106.835 231.64 104.689C231.64 104.689 231.704 101.938 235.557 101.463C235.57 101.463 238.565 101.257 240.024 100.743Z" fill="white"/>
</g>
<defs>
<filter id="filter0_d_104_4039" x="-4" y="-2" width="363" height="208" filterUnits="userSpaceOnUse" color-interpolation-filters="sRGB">
<feFlood flood-opacity="0" result="BackgroundImageFix"/>
<feColorMatrix in="SourceAlpha" type="matrix" values="0 0 0 0 0 0 0 0 0 0 0 0 0 0 0 0 0 0 127 0" result="hardAlpha"/>
<feOffset dy="2"/>
<feGaussianBlur stdDeviation="2"/>
<feComposite in2="hardAlpha" operator="out"/>
<feColorMatrix type="matrix" values="0 0 0 0 0 0 0 0 0 0 0 0 0 0 0 0 0 0 0.25 0"/>
<feBlend mode="normal" in2="BackgroundImageFix" result="effect1_dropShadow_104_4039"/>
<feBlend mode="normal" in="SourceGraphic" in2="effect1_dropShadow_104_4039" result="shape"/>
</filter>
</defs>
</svg>
