<svg width="20" height="27" viewBox="0 0 20 27" fill="none" xmlns="http://www.w3.org/2000/svg">
<path d="M10.0031 3.5C8.08751 3.49876 6.21203 4.04809 4.59969 5.08264C2.9873 6.117 1.70596 7.59317 0.908198 9.33538C0.110474 11.0773 -0.170191 13.0122 0.0997636 14.9091C0.369706 16.8061 1.17875 18.5856 2.43085 20.0361C3.6828 21.4863 5.32505 22.5461 7.16189 23.0896C8.99881 23.6329 10.9532 23.6369 12.7923 23.101C12.8008 23.0992 12.8099 23.0987 12.8183 23.0967H12.8181C15.1258 22.4192 17.112 20.9322 18.4124 18.9082C19.7128 16.8843 20.2405 14.4595 19.8983 12.0782C19.5563 9.69691 18.3674 7.51868 16.5501 5.9433C14.7326 4.36764 12.4081 3.50023 10.003 3.50007L10.0031 3.5ZM9.23203 20.926C10.4194 20.7302 11.4447 20.3934 12.123 19.9634C13.1099 20.4336 14.2261 20.9407 15.2492 21.0502L15.249 21.0503C14.444 21.6122 13.554 22.041 12.613 22.3205C11.9208 22.4598 10.3701 21.7043 9.23203 20.926L9.23203 20.926ZM14.8739 20.1781C14.0839 19.9651 13.3182 19.6706 12.5891 19.299C13.9251 15.4865 12.781 11.5233 9.80014 9.63446C10.2288 8.3817 10.8943 7.46064 11.7871 6.89267C16.4106 10.3893 16.845 16.0866 14.8739 20.1778L14.8739 20.1781ZM0.806127 13.5C0.805972 12.5312 0.959539 11.5684 1.26094 10.6477C3.56041 11.7735 6.98373 11.3919 9.30244 10.2662V10.2663C10.7959 11.2119 11.8333 12.7319 12.1694 14.4679C11.0659 15.1887 6.1344 16.2083 2.94573 16.0095C1.69208 15.9312 1.21342 15.6844 1.03538 15.5343V15.5345C0.883365 14.867 0.806349 14.1847 0.805881 13.5002L0.806127 13.5ZM11.757 5.98498C10.4816 6.63445 9.52852 7.85734 8.9902 9.52506C7.74449 10.1206 6.39273 10.4621 5.01368 10.5297C5.48199 7.71329 8.49877 4.83606 11.5124 4.42614C12.5471 4.59758 13.5444 4.94618 14.4607 5.45665C13.5286 5.3903 12.5954 5.57275 11.7568 5.98506L11.757 5.98498ZM9.15586 4.34063C6.66193 5.56427 4.56049 8.07726 4.20426 10.5302C3.28114 10.5157 2.37214 10.3004 1.5405 9.89922C2.19228 8.37285 3.24369 7.0508 4.58394 6.07236C5.92435 5.09395 7.50385 4.49563 9.1559 4.34043L9.15586 4.34063ZM1.32977 16.5556C1.84036 16.7005 2.36615 16.7852 2.89626 16.8078C3.17658 16.8253 3.47334 16.8337 3.78356 16.8337C6.67514 16.8337 10.6786 16.1081 12.3019 15.305C12.4271 16.6434 12.241 17.9925 11.7578 19.2469C10.4022 20.1582 6.58366 20.8126 3.34104 19.8328C2.44755 18.8941 1.76213 17.7774 1.32949 16.5556L1.32977 16.5556ZM4.59759 20.9365C5.34806 21.0566 6.10691 21.1166 6.86699 21.116C7.27936 21.116 7.68673 21.0986 8.08406 21.0664C8.88305 21.7073 9.75841 22.2465 10.6902 22.6716C10.4632 22.6885 10.2346 22.7 10.0034 22.7C8.0599 22.7016 6.16641 22.0839 4.59759 20.9365V20.9365ZM16.3855 20.115C16.1746 20.2138 15.9453 20.2669 15.7124 20.2706C17.6472 15.9932 17.1698 10.1985 12.584 6.49771C13.6001 6.13065 14.7842 6.15622 16.0463 6.57351C17.3314 7.69159 18.2801 9.14538 18.786 10.7719C19.2921 12.3987 19.3355 14.1341 18.9117 15.7841C18.4877 17.4342 17.6129 18.9336 16.3855 20.1146L16.3855 20.115Z" fill="#D96A2C"/>
</svg>
